<!DOCTYPE svg PUBLIC "-//W3C//DTD SVG 1.1//EN" "http://www.w3.org/Graphics/SVG/1.1/DTD/svg11.dtd">
<!-- Uploaded to: SVG Repo, www.svgrepo.com, Transformed by: SVG Repo Mixer Tools -->
<svg fill="#ffffff" version="1.1" id="Capa_1" xmlns="http://www.w3.org/2000/svg" xmlns:xlink="http://www.w3.org/1999/xlink" width="64px" height="64px" viewBox="0 0 592.20 592.20" xml:space="preserve" stroke="#ffffff" stroke-width="0.00592203">
<g id="SVGRepo_bgCarrier" stroke-width="0"/>
<g id="SVGRepo_tracerCarrier" stroke-linecap="round" stroke-linejoin="round" stroke="#CCCCCC" stroke-width="1.1844059999999998"/>
<g id="SVGRepo_iconCarrier"> <g> <g> <path d="M505.123,87.08c-27.133-27.133-58.742-48.441-93.947-63.332C374.705,8.321,335.988,0.5,296.101,0.5 c-39.887,0-78.604,7.821-115.074,23.248C145.822,38.638,114.214,59.946,87.08,87.08c-27.134,27.134-48.442,58.742-63.333,93.948 C8.321,217.498,0.5,256.214,0.5,296.102c0,39.887,7.821,78.604,23.248,115.074c14.89,35.205,36.198,66.813,63.332,93.947 s58.742,48.442,93.947,63.333c36.471,15.426,75.188,23.247,115.074,23.247c39.887,0,78.604-7.821,115.075-23.247 c35.205-14.891,66.812-36.199,93.947-63.333c27.135-27.133,48.441-58.742,63.332-93.947 c15.426-36.471,23.248-75.188,23.248-115.074c0-39.887-7.822-78.604-23.248-115.074 C553.564,145.822,532.258,114.213,505.123,87.08z M456.451,274.682c-1.363-37.479-6.293-73.628-14.439-106.704 c19.564-7.662,37.543-16.875,53.395-27.343c29.373,37.601,48.334,83.727,52.557,134.046H456.451z M317.521,47.506 c28.795,11.331,53.932,45.084,71.322,92.512c-22.607,5.676-46.719,9.249-71.322,10.566V47.506z M274.681,47.506v103.079 c-24.78-1.33-48.83-4.949-71.311-10.601C220.761,92.575,245.893,58.834,274.681,47.506z M191.077,181.121 c26.651,6.871,54.639,11.012,83.604,12.375v81.186h-96.062C179.929,241.216,184.279,209.604,191.077,181.121z M274.681,317.521 v81.187c-28.964,1.362-56.954,5.503-83.604,12.374c-6.798-28.482-11.147-60.095-12.458-93.561H274.681L274.681,317.521z M274.681,441.617v103.079c-28.788-11.327-53.92-45.068-71.311-92.479C225.851,446.566,249.901,442.947,274.681,441.617z M317.521,544.697V441.619c24.604,1.316,48.715,4.89,71.322,10.566C371.453,499.612,346.316,533.366,317.521,544.697z M401.121,411.103c-26.51-6.791-54.812-10.982-83.6-12.378v-81.203h96.061C412.273,350.995,407.922,382.615,401.121,411.103z M317.521,274.682v-81.203c28.787-1.396,57.09-5.587,83.6-12.378c6.801,28.487,11.152,60.107,12.463,93.581H317.521z M465.764,108.745c-10.943,6.701-23.07,12.762-36.146,18.061c-3.467-9.588-7.242-18.793-11.322-27.543 c-5.775-12.378-12.068-23.693-18.846-33.894C423.852,76.316,446.201,91.019,465.764,108.745z M192.754,65.368 c-6.777,10.201-13.073,21.516-18.846,33.894c-4.08,8.746-7.852,17.947-11.319,27.531c-13.009-5.256-25.136-11.294-36.157-18.044 C145.996,91.021,168.349,76.317,192.754,65.368z M96.795,140.636c15.85,10.46,33.85,19.677,53.398,27.336 c-8.148,33.077-13.079,69.228-14.441,106.709H44.24C48.462,224.362,67.423,178.237,96.795,140.636z M135.752,317.521 c1.362,37.482,6.294,73.633,14.441,106.71c-19.548,7.658-37.548,16.875-53.398,27.335 c-29.372-37.601-48.333-83.726-52.556-134.045H135.752z M126.432,483.454c11.021-6.751,23.147-12.789,36.157-18.045 c3.467,9.584,7.239,18.785,11.319,27.531c5.774,12.378,12.069,23.692,18.846,33.894 C168.349,515.886,145.996,501.182,126.432,483.454z M399.447,526.835c6.777-10.201,13.072-21.516,18.848-33.894 c4.08-8.75,7.854-17.955,11.322-27.544c13.076,5.3,25.201,11.361,36.146,18.062C446.201,501.185,423.852,515.888,399.447,526.835z M495.406,451.567c-15.852-10.468-33.83-19.682-53.395-27.343c8.146-33.074,13.076-69.224,14.439-106.703h91.512 C543.74,367.841,524.779,413.967,495.406,451.567z"/> <path d="M296.101,592.203c-39.954,0-78.736-7.835-115.269-23.286c-35.264-14.916-66.926-36.261-94.106-63.44 c-27.18-27.18-48.524-58.842-63.439-94.106C7.835,374.84,0,336.058,0,296.102c0-39.955,7.835-78.737,23.287-115.269 c14.916-35.265,36.26-66.927,63.439-94.106c27.181-27.18,58.842-48.523,94.106-63.439C217.364,7.835,256.146,0,296.101,0 c39.956,0,78.738,7.835,115.269,23.287c35.267,14.917,66.929,36.26,94.106,63.439c27.179,27.177,48.522,58.839,63.439,94.106 c15.452,36.533,23.287,75.315,23.287,115.269c0,39.953-7.835,78.735-23.287,115.269c-14.918,35.27-36.262,66.931-63.439,94.106 c-27.182,27.181-58.844,48.525-94.106,63.44C374.839,584.368,336.057,592.203,296.101,592.203z M296.101,1 c-39.82,0-78.472,7.808-114.879,23.208c-35.145,14.865-66.699,36.137-93.789,63.225c-27.088,27.088-48.36,58.644-63.226,93.789 C8.808,217.63,1,256.281,1,296.102c0,39.821,7.808,78.473,23.208,114.88c14.865,35.145,36.137,66.7,63.225,93.788 c27.088,27.089,58.644,48.36,93.789,63.226c36.409,15.399,75.06,23.208,114.879,23.208c39.821,0,78.472-7.809,114.88-23.208 c35.143-14.864,66.698-36.137,93.788-63.226c27.086-27.084,48.358-58.639,63.225-93.788c15.4-36.41,23.209-75.062,23.209-114.88 c0-39.819-7.809-78.47-23.209-114.879c-14.866-35.148-36.138-66.703-63.225-93.789c-27.087-27.087-58.642-48.359-93.788-63.225 C374.573,8.808,335.922,1,296.101,1z M317.021,545.432v-104.34l0.526,0.028c24.69,1.32,48.719,4.881,71.418,10.58l0.539,0.136 l-0.191,0.521c-17.858,48.702-43.29,81.661-71.609,92.805L317.021,545.432z M318.021,442.147v101.812 c27.676-11.257,52.558-43.673,70.161-91.424C365.866,446.971,342.267,443.477,318.021,442.147z M275.181,545.431l-0.683-0.27 c-28.312-11.14-53.739-44.086-71.597-92.771l-0.191-0.521l0.539-0.136c22.762-5.722,46.786-9.293,71.406-10.614l0.527-0.028 V545.431z M204.032,452.567c17.603,47.734,42.481,80.138,70.149,91.391V442.146C250.004,443.475,226.409,446.98,204.032,452.567z M398.073,527.999l0.958-1.44c6.747-10.156,13.076-21.538,18.811-33.828c4.014-8.607,7.817-17.86,11.306-27.503l0.176-0.488 l0.481,0.195c13.067,5.296,25.254,11.385,36.22,18.098l0.569,0.349l-0.494,0.448c-19.804,17.944-42.16,32.567-66.447,43.462 L398.073,527.999z M429.91,466.057c-3.449,9.494-7.204,18.607-11.162,27.096c-5.485,11.757-11.514,22.687-17.933,32.515 c23.383-10.682,44.942-24.848,64.116-42.13C454.295,477.072,442.519,471.194,429.91,466.057z M194.128,527.998l-1.579-0.708 c-24.292-10.897-46.65-25.521-66.454-43.466l-0.495-0.448l0.569-0.349c10.959-6.713,23.149-12.797,36.231-18.082l0.481-0.194 l0.177,0.488c3.486,9.637,7.288,18.886,11.302,27.49c5.734,12.291,12.062,23.672,18.81,33.828L194.128,527.998z M127.264,483.532 c19.173,17.282,40.736,31.45,64.122,42.134c-6.418-9.827-12.447-20.758-17.931-32.515c-3.958-8.485-7.711-17.595-11.159-27.084 C149.674,471.194,137.893,477.067,127.264,483.532z M495.516,452.239l-0.385-0.255c-15.855-10.471-33.789-19.653-53.302-27.294 l-0.407-0.16l0.104-0.425c8.212-33.339,13.064-69.205,14.425-106.603l0.018-0.481h92.538l-0.046,0.542 c-4.114,49.034-22.324,95.479-52.661,134.312L495.516,452.239z M442.602,423.919c19.262,7.572,36.986,16.646,52.694,26.977 c29.935-38.462,47.948-84.388,52.123-132.874h-90.485C455.553,355.153,450.73,390.778,442.602,423.919z M96.686,452.238 l-0.284-0.364c-30.335-38.834-48.545-85.278-52.66-134.311l-0.046-0.542h92.538l0.018,0.481 c1.359,37.393,6.213,73.261,14.427,106.608l0.105,0.426l-0.408,0.16c-19.526,7.649-37.461,16.83-53.305,27.286L96.686,452.238z M44.784,318.021c4.174,48.485,22.188,94.41,52.122,132.873c15.697-10.316,33.422-19.388,52.698-26.969 c-8.133-33.151-12.954-68.774-14.333-105.904H44.784z M401.489,411.713l-0.492-0.126c-26.565-6.806-54.659-10.965-83.5-12.363 l-0.476-0.022v-82.18h97.08l-0.02,0.52c-1.285,32.871-5.482,64.389-12.475,93.678L401.489,411.713z M318.021,398.249 c28.563,1.415,56.393,5.533,82.731,12.243c6.869-28.932,11.01-60.038,12.309-92.471h-95.04V398.249z M190.708,411.693 l-0.118-0.495c-6.988-29.28-11.184-60.791-12.471-93.657l-0.021-0.52h97.083v82.163l-0.477,0.022 c-28.867,1.358-56.961,5.517-83.503,12.359L190.708,411.693z M179.139,318.021c1.301,32.429,5.44,63.527,12.307,92.449 c26.316-6.747,54.146-10.864,82.736-12.239v-80.21H179.139z M548.507,275.182h-92.538l-0.018-0.482 c-1.36-37.396-6.213-73.262-14.425-106.602l-0.104-0.425l0.407-0.16c19.517-7.643,37.449-16.826,53.302-27.294l0.385-0.255 l0.284,0.364c30.337,38.834,48.547,85.278,52.661,134.312L548.507,275.182z M456.934,274.182h90.485 c-4.175-48.486-22.188-94.412-52.123-132.875c-15.705,10.329-33.429,19.403-52.694,26.977 C450.731,201.427,455.553,237.048,456.934,274.182z M414.104,275.182h-97.082v-82.18l0.476-0.023 c28.841-1.398,56.935-5.558,83.5-12.363l0.492-0.126l0.118,0.494c6.991,29.287,11.189,60.804,12.477,93.678L414.104,275.182z M318.021,274.182h95.042c-1.301-32.436-5.441-63.542-12.311-92.471c-26.339,6.71-54.168,10.829-82.731,12.244V274.182z M275.181,275.182h-97.083l0.021-0.52c1.287-32.866,5.483-64.376,12.471-93.658l0.118-0.495l0.493,0.127 c26.542,6.843,54.637,11.001,83.503,12.359l0.477,0.022V275.182z M179.139,274.182h95.042v-80.209 c-28.589-1.376-56.418-5.494-82.736-12.241C184.579,210.655,180.44,241.753,179.139,274.182z M136.234,275.182H43.696l0.046-0.542 c4.114-49.032,22.324-95.476,52.659-134.311l0.284-0.364l0.385,0.254c15.844,10.457,33.778,19.638,53.305,27.288l0.408,0.16 l-0.105,0.425c-8.213,33.344-13.067,69.212-14.427,106.608L136.234,275.182z M44.784,274.182h90.486 c1.38-37.134,6.201-72.756,14.333-105.904c-19.276-7.582-37.001-16.653-52.698-26.97 C66.971,179.771,48.958,225.697,44.784,274.182z M275.181,151.112l-0.527-0.028c-24.617-1.321-48.641-4.893-71.406-10.615 l-0.539-0.135l0.191-0.522c17.858-48.684,43.285-81.631,71.597-92.771l0.683-0.269V151.112z M204.032,139.635 c22.379,5.587,45.975,9.093,70.149,10.422V48.245C246.513,59.498,221.635,91.901,204.032,139.635z M317.021,151.111V46.772 l0.683,0.269c28.319,11.144,53.751,44.102,71.609,92.805l0.191,0.522l-0.539,0.135c-22.7,5.699-46.729,9.259-71.418,10.581 L317.021,151.111z M318.021,48.245v101.812c24.245-1.33,47.844-4.824,70.161-10.389C370.579,91.916,345.697,59.5,318.021,48.245z M429.323,127.464l-0.177-0.488c-3.479-9.624-7.283-18.876-11.305-27.501c-5.737-12.298-12.066-23.679-18.809-33.828l-0.958-1.441 l1.579,0.708c24.287,10.896,46.643,25.518,66.445,43.461l0.494,0.448l-0.569,0.349c-10.958,6.71-23.145,12.799-36.22,18.098 L429.323,127.464z M400.817,66.538c6.415,9.821,12.442,20.751,17.931,32.514c3.966,8.506,7.721,17.62,11.162,27.096 c12.616-5.14,24.393-11.018,35.021-17.48C445.76,91.385,424.2,77.22,400.817,66.538z M162.883,127.451l-0.481-0.194 c-13.081-5.286-25.271-11.369-36.231-18.082l-0.569-0.349l0.495-0.448C145.9,90.434,168.258,75.81,192.55,64.912l1.579-0.708 l-0.958,1.441c-6.75,10.161-13.079,21.542-18.81,33.829c-4.014,8.604-7.816,17.854-11.302,27.49L162.883,127.451z M127.264,108.671c10.63,6.464,22.411,12.337,35.032,17.464c3.447-9.489,7.201-18.599,11.159-27.084 c5.481-11.752,11.509-22.682,17.931-32.514C168,77.221,146.438,91.388,127.264,108.671z"/> </g> </g> </g>
</svg>