<svg width="396" height="177" viewBox="0 0 396 177" fill="none" xmlns="http://www.w3.org/2000/svg">
<path d="M15.3906 126.4C14.7173 129.56 11.7152 139.819 9.71269 146.455L1.72293 173.707L0.927927 172.626C33.4754 171.89 65.955 170.76 98.4346 169.63C130.914 168.5 163.411 167.468 195.86 166.75C228.309 166.031 260.873 165.393 293.39 165.069C325.907 164.744 358.342 164.535 390.876 164.309L386.291 170.679C383.665 162.507 380.628 154.303 377.215 146.266C375.533 142.395 373.719 138.344 371.776 134.722L371.046 133.427L370.315 132.132L369.503 130.953L368.593 129.79C367.351 128.09 366.019 126.456 364.604 124.896C361.825 121.722 358.75 118.599 355.74 115.261C352.729 111.924 349.719 108.587 346.889 105.117C341.113 98.0952 336.01 90.8564 330.89 83.519C330.37 82.7883 330.111 81.9038 330.153 81.0077C329.988 71.8021 329.725 62.6135 329.148 53.3773C328.877 48.8577 328.491 44.2566 328.005 39.6724C327.52 35.0883 326.855 30.6366 325.928 26.433C325.549 24.4443 324.943 22.5059 324.121 20.6559C323.984 20.3006 323.823 19.9554 323.638 19.6227C323.489 19.3441 323.373 19.2625 323.489 19.3441L323.785 19.2931C323.802 19.3917 323.9 19.3747 323.802 19.3917L323.21 19.4935C322.381 19.6145 321.566 19.8229 320.78 20.115C319.799 20.4243 318.849 20.8258 317.943 21.3141C315.966 22.2431 314.045 23.2856 312.189 24.4362C304.483 29.2533 297.093 34.5596 290.065 40.3225L289.966 40.3395C289.31 40.8888 288.49 41.2067 287.635 41.244C286.779 41.2813 285.935 41.0361 285.233 40.546C279.606 36.7461 273.782 32.9801 268.009 29.5097C265.164 27.8188 262.225 26.2923 259.205 24.9378C256.27 23.5897 253.2 22.5539 250.048 21.8475C243.694 20.3038 236.85 19.4533 229.989 18.5041L209.509 16.2481C195.921 14.7273 182.25 14.0658 168.579 14.2675C161.817 14.4715 155.071 15.024 148.366 15.9228C146.691 16.2113 144.999 16.4014 143.34 16.7885L140.877 17.2129L138.447 17.8344L136.017 18.4559L133.72 19.2575L131.44 20.1577L130.406 20.64L129.914 20.7249L129.553 20.9899L129.258 21.0409C128.834 21.2596 128.356 21.3524 127.881 21.3084C127.406 21.2644 126.953 21.0853 126.577 20.7924C121.263 17.04 115.67 13.4372 110.046 10.2454C107.215 8.6493 104.293 7.22143 101.293 5.96926L96.9474 4.89139C95.6083 4.56127 94.2183 4.4907 92.8527 4.68348C92.7541 4.70046 92.557 4.73441 92.574 4.83296L91.969 5.44453L90.7794 7.3745C89.9976 8.72684 89.2498 10.2763 88.5835 11.7102C87.9173 13.1441 85.9695 17.7415 84.7695 20.7894C82.2879 27.0009 80.0034 33.1783 77.9499 39.5189L77.6237 39.981L68.6921 48.2168C67.1984 49.5309 65.7789 50.9273 64.4404 52.3992L60.5522 56.925C55.308 63.0034 50.4273 69.4252 45.6621 75.9285C40.8969 82.4318 36.4614 89.0813 32.1583 95.9109C30.0067 99.3257 27.9707 102.822 26.0332 106.301C24.0958 109.781 22.1753 113.359 20.3533 116.92C17.1649 123.151 15.1525 127.963 15.9414 124.884C16.3286 123.488 16.8043 122.118 17.3658 120.783L20.16 114.619C22.3389 110.185 24.9596 105.37 26.6863 102.434C28.413 99.4987 30.1397 96.563 31.9819 93.7089L37.5256 85.245C41.3255 79.6182 45.1425 74.09 49.1905 68.725C53.2385 63.3599 57.2695 57.8963 61.6471 52.6775L65.0458 48.8449L68.6926 45.274L75.9045 38.2477L75.5782 38.7098C77.5331 32.3862 79.5865 26.0456 81.837 19.671C82.9215 16.5415 84.1045 13.395 85.4031 10.3301L87.531 5.60017L88.9654 3.32364C89.2795 2.84859 89.6467 2.41087 90.0598 2.01892C90.1244 1.80485 90.5832 1.52287 90.9604 1.35642L91.8134 1.00654L93.4887 0.717955L94.9024 0.67739L97.699 1.00744C99.4931 1.40869 101.206 1.92546 102.82 2.45921C106.016 3.65944 109.137 5.05348 112.164 6.63355C118.165 9.75998 123.981 13.2305 129.581 17.0277L126.622 16.9287L127.359 16.4973L128.015 16.1813L129.327 15.5495L131.869 14.4013L134.445 13.4502C135.267 13.1571 136.105 12.911 136.956 12.7132L139.566 11.9592L142.193 11.3037L147.416 10.404C154.338 9.2403 161.321 8.47777 168.332 8.12026C182.322 7.67097 196.326 8.10552 210.261 9.42131L230.904 11.4463C237.847 12.2799 244.789 13.1135 251.85 14.637C255.447 15.4585 258.967 16.5833 262.374 17.9993C265.785 19.5426 268.918 21.2353 271.952 22.9451C278.038 26.4631 283.96 30.2121 289.801 34.0767L284.969 34.3002C288.602 31.239 292.269 28.375 296.051 25.5925C299.834 22.81 303.814 19.9935 307.844 17.4727C309.958 16.1953 312.089 15.0165 314.335 13.9193C315.488 13.3094 316.689 12.7969 317.927 12.3872C319.303 11.8504 320.735 11.4677 322.195 11.2461L323.477 11.0254L325.023 11.165C325.64 11.189 326.248 11.3249 326.817 11.5662L327.823 12.1033L328.73 12.6573C329.538 13.2895 330.223 14.0662 330.748 14.948C331.208 15.6189 331.603 16.3324 331.927 17.0788C332.938 19.4716 333.738 21.9482 334.318 24.4803C335.364 29.3738 336.063 34.0225 336.664 38.6883C337.265 43.354 337.587 48.1692 337.875 52.7873C338.584 62.2037 338.963 71.4739 339.063 80.8935L338.326 78.3822C343.314 85.5394 348.4 92.6797 353.91 99.3409C356.608 102.631 359.503 105.887 362.479 109.027C365.455 112.167 368.53 115.291 371.557 118.727C373.178 120.477 374.602 122.261 376.042 124.144C376.354 124.618 376.703 125.067 377.085 125.486L378.179 127.124L379.158 128.681L380.037 130.254C382.263 134.336 384.077 138.387 385.908 142.536C389.538 150.744 392.744 159.133 395.514 167.67C395.72 168.281 395.804 168.927 395.76 169.57C395.716 170.213 395.546 170.841 395.259 171.419C394.972 171.996 394.574 172.511 394.087 172.934C393.601 173.358 393.035 173.681 392.424 173.885L390.946 174.14C358.463 174.661 325.997 175.282 293.48 175.606C260.963 175.931 228.511 176.042 196.042 176.054C163.573 176.066 131.035 175.684 98.4813 175.203C65.9272 174.722 33.4886 174.323 1.01943 174.335L0.92088 174.352C0.721096 174.338 0.533817 174.25 0.396051 174.104C0.258285 173.959 0.180048 173.767 0.176802 173.567L0.142851 173.37L11.0527 138.918C13.2353 132.149 16.0639 123.24 15.3906 126.4Z" fill="white"/>
</svg>
