<svg width="141" height="70" viewBox="0 0 141 70" fill="none" xmlns="http://www.w3.org/2000/svg">
<g clip-path="url(#clip0_3_8)">
<path d="M130.371 46.6542C134.725 45.9041 137.647 41.7664 136.897 37.4122C136.147 33.0581 132.009 30.1364 127.655 30.8864C123.301 31.6364 120.379 35.7742 121.129 40.1283C121.879 44.4825 126.017 47.4042 130.371 46.6542Z" fill="white"/>
<path d="M135.134 33.657C134.916 33.7884 134.664 33.853 134.41 33.8427C134.156 33.8324 133.91 33.7477 133.703 33.599C132.358 32.4134 130.62 31.7721 128.827 31.8007C127.086 31.923 125.448 32.6739 124.219 33.9136C122.993 35.1709 122.301 36.8536 122.288 38.6095C122.3 40.3007 122.942 41.9267 124.088 43.1701C124.652 43.7778 125.332 44.2663 126.088 44.6067C126.844 44.9471 127.66 45.1325 128.489 45.1519C130.097 45.2642 131.684 44.7354 132.903 43.6812C134.122 42.6162 134.914 41.1461 135.133 39.5426C135.258 37.988 134.811 36.4411 133.876 35.1928C133.744 35.0126 134.495 34.0715 135.134 33.657C135.773 33.2425 137.302 33.2835 137.485 33.7593C138.117 34.8219 138.532 35.9986 138.708 37.2219C138.884 38.4453 138.817 39.6913 138.51 40.8888C138.239 42.0963 137.732 43.2384 137.018 44.2495C136.304 45.2606 135.397 46.1207 134.35 46.7805C133.357 47.4584 132.237 47.9303 131.058 48.1682C129.879 48.4062 128.665 48.4054 127.486 48.1659C125.098 47.7558 122.953 46.4579 121.482 44.5324C120.044 42.6145 119.412 40.2114 119.719 37.8344C119.976 35.5066 121.14 33.3737 122.959 31.8983C124.703 30.3789 126.965 29.5895 129.276 29.6939C131.576 29.8468 133.738 30.8486 135.341 32.5051C135.589 32.7668 135.773 33.2425 135.134 33.657Z" fill="white"/>
</g>
<g clip-path="url(#clip1_3_8)">
<path d="M21.1533 28.6839C18.2951 25.3654 13.3878 24.9386 10.1924 27.7307C6.997 30.5228 6.72362 35.4765 9.58176 38.795C12.4399 42.1135 17.3473 42.5402 20.5427 39.7481C23.738 36.956 24.0114 32.0024 21.1533 28.6839Z" fill="white"/>
<path d="M8.01109 31.0847C8.23139 31.2043 8.41408 31.3857 8.5365 31.6063C8.65893 31.8269 8.71569 32.0771 8.69977 32.3258C8.41676 34.0527 8.78426 35.8438 9.73041 37.3488C10.7274 38.7639 12.188 39.7799 13.8404 40.2076C15.5055 40.6237 17.2457 40.3766 18.6968 39.5181C20.0816 38.6703 21.0887 37.321 21.5214 35.7337C21.7311 34.955 21.7829 34.1369 21.6739 33.3278C21.5648 32.5187 21.2971 31.735 20.8865 31.0231C20.1512 29.6048 18.8993 28.5217 17.4046 28.0105C15.9013 27.5051 14.2844 27.5619 12.8527 28.1705C11.5095 28.8344 10.4672 29.9792 9.92161 31.3898C9.84165 31.5913 8.68088 31.4209 8.01109 31.0847C7.3413 30.7485 6.58792 29.4323 6.88484 29.0412C7.434 27.98 8.18801 27.0452 9.10372 26.2902C10.0194 25.5353 11.0789 24.975 12.2214 24.6415C13.3544 24.2734 14.5549 24.1376 15.754 24.2419C16.9531 24.3461 18.1272 24.6884 19.209 25.2491C20.278 25.7553 21.2423 26.4703 22.0449 27.3516C22.8475 28.2329 23.4721 29.2628 23.8819 30.3803C24.7738 32.6073 24.8102 35.0677 23.9836 37.268C23.1461 39.4362 21.4949 41.1623 19.3815 42.0791C17.3346 43.0144 14.9812 43.0844 12.8315 42.2738C10.6839 41.5481 8.87008 40.0218 7.76646 38.0118C6.7082 35.9866 6.41965 33.6586 6.95679 31.4794C7.04437 31.1396 7.3413 30.7485 8.01109 31.0847Z" fill="white"/>
</g>
<defs>
<clipPath id="clip0_3_8">
<rect width="19.2" height="18.7" fill="white" transform="translate(118.205 31.3981) rotate(-9.77371)"/>
</clipPath>
<clipPath id="clip1_3_8">
<rect width="19.0322" height="17.9598" fill="white" transform="matrix(-0.652594 -0.757708 0.753027 -0.657989 14.867 46.5503)"/>
</clipPath>
</defs>
</svg>
