<svg width="64" height="32" viewBox="0 0 64 32" fill="none" xmlns="http://www.w3.org/2000/svg">
<g filter="url(#filter0_d_3_15)">
<path d="M7.19107 9.46091C8.68913 12.8559 11.0774 16.7063 14.6318 17.3117C21.3294 18.4919 32.3375 8.17343 32.3375 8.17343C32.3375 8.17343 38.483 19.6974 44.7387 21.2581C50.9944 22.8188 54.9948 17.7664 59.4879 12.6291" fill="white"/>
<path d="M59.4879 12.6291C60.2829 13.7098 60.0076 14.4676 59.6643 14.8311C57.7057 17.1375 55.4695 19.1927 53.0064 20.9502C51.6431 21.9295 50.1242 22.6715 48.5137 23.1447L47.1341 23.3823L45.819 23.4059L44.3714 23.2494L42.9884 22.8788C40.0583 21.4681 37.4845 19.414 35.459 16.8697C33.4602 14.5303 31.6698 12.0206 30.1081 9.36925L34.0736 10.0053C32.0908 11.8903 29.9859 13.6427 27.7727 15.2511C25.5257 16.9315 23.0681 18.3101 20.4627 19.3515C18.9427 19.991 17.3163 20.34 15.6678 20.3804L14.2371 20.3224C13.7654 20.2433 13.3023 20.1192 12.8542 19.9518C11.9442 19.7108 11.0846 19.309 10.3159 18.7655C8.9734 17.7962 7.78151 16.6337 6.77898 15.3158C5.89692 14.1008 5.13036 12.8061 4.48924 11.4484C4.30582 10.9726 5.84534 9.89566 7.20804 9.55945C8.57074 9.22324 10.6912 9.16241 10.8576 9.53963C11.5665 11.285 12.7404 12.8025 14.2517 13.9271L15.0264 14.301L17.3916 13.8936L18.8359 13.4419C20.9738 12.6638 23.0104 11.6316 24.902 10.3675C26.8018 9.02552 28.7831 7.56802 30.5504 6.04592L30.6489 6.02895C31.156 5.60874 31.8084 5.40558 32.4643 5.46358C33.1203 5.52158 33.7269 5.83607 34.1523 6.33872L34.5329 6.78053C35.7886 9.26752 37.2825 11.6269 38.9936 13.8256C39.8045 14.9092 40.7244 15.9068 41.7388 16.8027C42.5642 17.7306 43.5919 18.4563 44.7424 18.9236C45.723 19.306 46.7992 19.3692 47.8177 19.1042C49.0635 18.7779 50.2409 18.2314 51.2943 17.4906C53.6371 15.9453 55.7758 14.1109 57.6598 12.0308C57.9555 11.9798 58.6114 11.6639 59.4879 12.6291Z" fill="white"/>
</g>
<defs>
<filter id="filter0_d_3_15" x="0.474304" y="5.45386" width="63.5294" height="25.9521" filterUnits="userSpaceOnUse" color-interpolation-filters="sRGB">
<feFlood flood-opacity="0" result="BackgroundImageFix"/>
<feColorMatrix in="SourceAlpha" type="matrix" values="0 0 0 0 0 0 0 0 0 0 0 0 0 0 0 0 0 0 127 0" result="hardAlpha"/>
<feOffset dy="4"/>
<feGaussianBlur stdDeviation="2"/>
<feComposite in2="hardAlpha" operator="out"/>
<feColorMatrix type="matrix" values="0 0 0 0 0 0 0 0 0 0 0 0 0 0 0 0 0 0 0.25 0"/>
<feBlend mode="normal" in2="BackgroundImageFix" result="effect1_dropShadow_3_15"/>
<feBlend mode="normal" in="SourceGraphic" in2="effect1_dropShadow_3_15" result="shape"/>
</filter>
</defs>
</svg>
