<svg width="114" height="94" viewBox="0 0 114 94" fill="none" xmlns="http://www.w3.org/2000/svg">
<g clip-path="url(#clip0_1_4)">
<path d="M26.5362 30.2408H3.6506C2.63488 30.2408 1.81189 30.9197 1.81189 31.7569V92.3802C1.81189 93.2177 2.63488 93.8963 3.6506 93.8963H26.5362C27.552 93.8963 28.375 93.2177 28.375 92.3802V31.7569C28.375 30.9197 27.552 30.2408 26.5362 30.2408Z" fill="white"/>
<path d="M15.1017 0.103394C6.77455 0.103394 0 5.68335 0 12.5421C0 19.4037 6.77455 24.9858 15.1017 24.9858C23.4222 24.9858 30.1912 19.4034 30.1912 12.5421C30.1916 5.68335 23.4222 0.103394 15.1017 0.103394Z" fill="white"/>
<path d="M84.7476 28.734C75.5559 28.734 68.7611 31.9922 64.6398 35.6943V31.7568C64.6398 30.9197 63.8168 30.2407 62.8012 30.2407H40.8841C39.8683 30.2407 39.0454 30.9197 39.0454 31.7568V92.3802C39.0454 93.2177 39.8683 93.8963 40.8841 93.8963H63.7197C64.7355 93.8963 65.5584 93.2177 65.5584 92.3802V62.3857C65.5584 52.2782 68.888 48.3406 77.4328 48.3406C86.7389 48.3406 87.4784 54.6531 87.4784 62.9057V92.3805C87.4784 93.218 88.3014 93.8966 89.3171 93.8966H112.161C113.177 93.8966 114 93.218 114 92.3805V59.1275C114 44.0981 110.524 28.734 84.7476 28.734Z" fill="white"/>
</g>
<defs>
<clipPath id="clip0_1_4">
<rect width="114" height="94" fill="white"/>
</clipPath>
</defs>
</svg>
