<svg width="39" height="28" viewBox="0 0 39 28" fill="none" xmlns="http://www.w3.org/2000/svg">
<path d="M2.35 27.7C1.69167 27.7 1.13542 27.4721 0.68125 27.0163C0.227083 26.5604 0 25.9854 0 25.2913C0 24.6304 0.227083 24.075 0.68125 23.625C1.13542 23.175 1.69167 22.95 2.35 22.95H36.15C36.8083 22.95 37.3729 23.1779 37.8438 23.6337C38.3146 24.0896 38.55 24.648 38.55 25.3088C38.55 26.0029 38.3146 26.575 37.8438 27.025C37.3729 27.475 36.8083 27.7 36.15 27.7H2.35ZM2.35 16.2C1.69167 16.2 1.13542 15.9721 0.68125 15.5163C0.227083 15.0604 0 14.5021 0 13.8413C0 13.1804 0.227083 12.625 0.68125 12.175C1.13542 11.725 1.69167 11.5 2.35 11.5H36.15C36.8083 11.5 37.3729 11.7279 37.8438 12.1837C38.3146 12.6396 38.55 13.1979 38.55 13.8587C38.55 14.5196 38.3146 15.075 37.8438 15.525C37.3729 15.975 36.8083 16.2 36.15 16.2H2.35ZM2.35 4.75C1.69167 4.75 1.13542 4.52208 0.68125 4.06625C0.227083 3.61038 0 3.03538 0 2.34125C0 1.68042 0.227083 1.125 0.68125 0.675C1.13542 0.225 1.69167 0 2.35 0H36.15C36.8083 0 37.3729 0.227916 37.8438 0.683749C38.3146 1.13962 38.55 1.69795 38.55 2.35875C38.55 3.05292 38.3146 3.625 37.8438 4.075C37.3729 4.525 36.8083 4.75 36.15 4.75H2.35Z" fill="white"/>
</svg>
